<?xml version="1.0" standalone="no"?><!DOCTYPE svg PUBLIC "-//W3C//DTD SVG 1.1//EN" "http://www.w3.org/Graphics/SVG/1.1/DTD/svg11.dtd"><svg t="1599564760128" class="icon" viewBox="0 0 1024 1024" version="1.1" xmlns="http://www.w3.org/2000/svg" p-id="1293" xmlns:xlink="http://www.w3.org/1999/xlink" width="500" height="500"><defs><style type="text/css"></style></defs><path d="M0 0h853.333333v853.333333H0z" fill="#FFFFFF" opacity=".01" p-id="1294"></path><path d="M585.386667 423.338667H291.84a36.693333 36.693333 0 1 1 0-73.429334h293.546667a36.693333 36.693333 0 1 1 0 73.386667z m0 220.16H291.84a36.693333 36.693333 0 1 1 0-73.472h293.546667a36.693333 36.693333 0 1 1 0 73.429333z" fill="#333333" p-id="1295"></path><path d="M697.6 85.333333a128 128 0 0 1 128 128v216.917334l52.138667 0.042666c31.232 0 56.874667 29.312 59.605333 66.730667l0.256 6.698667v403.285333c0 38.314667-23.893333 69.76-54.4 73.130667l-5.461333 0.298666-52.138667-0.042666V981.333333H192a128 128 0 0 1-128-128V213.333333a128 128 0 0 1 128-128h505.6z m0 64H192a64 64 0 0 0-63.701333 57.856L128 213.333333v640a64 64 0 0 0 57.856 63.701334l6.144 0.298666h566.357333l0.042667-487.04 3.2-0.042666V213.333333a64 64 0 0 0-51.84-62.848l-5.973333-0.853333-6.186667-0.298667z m174.08 344.917334l-46.08-0.042667v422.144l46.08 0.042667 0.981333-2.474667 0.682667-3.2 0.256-3.712v-403.285333a24.917333 24.917333 0 0 0-0.938667-6.912l-0.981333-2.56z" fill="#333333" p-id="1296"></path></svg>