<?xml version="1.0" standalone="no"?><!DOCTYPE svg PUBLIC "-//W3C//DTD SVG 1.1//EN" "http://www.w3.org/Graphics/SVG/1.1/DTD/svg11.dtd"><svg t="1599564750453" class="icon" viewBox="0 0 1024 1024" version="1.1" xmlns="http://www.w3.org/2000/svg" p-id="1144" xmlns:xlink="http://www.w3.org/1999/xlink" width="500" height="500"><defs><style type="text/css"></style></defs><path d="M0 0h853.333333v853.333333H0z" fill="#FFFFFF" opacity=".01" p-id="1145"></path><path d="M489.386667 54.741333c240.042667 0 434.645333 194.56 434.645333 434.645334 0 107.648-39.168 206.208-104.021333 282.112l163.584 157.653333a33.706667 33.706667 0 0 1-44.714667 50.090667l-3.754667-3.328-162.688-156.714667a432.938667 432.938667 0 0 1-283.050666 104.832c-240.085333 0-434.645333-194.602667-434.645334-434.645333 0-240.085333 194.56-434.645333 434.645334-434.645334z m0 61.184a373.418667 373.418667 0 1 0 0 746.88 373.418667 373.418667 0 0 0 0-746.88z" fill="#333333" p-id="1146"></path><path d="M493.44 289.408c16.896 0 30.634667 13.653333 30.634667 30.592v142.848h142.805333a30.592 30.592 0 1 1 0 61.226667h-142.848v142.805333a30.592 30.592 0 1 1-61.184 0v-142.805333H320a30.592 30.592 0 1 1 0-61.226667h142.848V320c0-16.896 13.696-30.592 30.592-30.592z" fill="#333333" p-id="1147"></path></svg>